{"title":"Guardians of the Galaxy 2014 DVDRip X264 AC3 5.1-PLAYNOW","uid":11423928,"size":1877587638,"categoryP":"video","categoryS":"movies","magnet":"?xt=urn:btih:d27e3b86f195d1c552fb9d83385ba7f13f4cbd20&amp;dn=Guardians+of+the+Galaxy+2014+DVDRip+X264+AC3+5.1-PLAYNOW&amp;tr=udp%3A%2F%2Ftracker.openbittorrent.com%3A80&amp;tr=udp%3A%2F%2Fopen.demonii.com%3A1337&amp;tr=udp%3A%2F%2Ftracker.coppersurfer.tk%3A6969&amp;tr=udp%3A%2F%2Fexodus.desync.com%3A6969","seeders":2,"leechers":0,"uploader":".BONE.","files":3,"time":1415642688,"description":"Guardians of the Galaxy 2014 DVDRip X264 AC3 5.1-PLAYNOW\n &lt;a href=&quot;\nhttp://www.imdb.com/title/tt2015381/&quot; rel=&quot;nofollow&quot; target=&quot;_NEW&quot;&gt;\nhttp://www.imdb.com/title/tt2015381/&lt;/a&gt;\n\nLight years from Earth, 26 years after being abducted, Peter Quill finds himself the prime target of a manhunt after discovering an orb wanted by Ronan the Accuser.\n\nSource Used: Retail DVD\n\nFormat : Matroska\nFormat version : Version 2\nFile size : 1.72 GiB\nDuration : 2h 0mn\nOverall bit rate : 2 032 Kbps\nEncoded date : UTC 2014-11-10 08:38:24\nWriting application : mkvmerge v7.0.0 ('Where We Going') 32bit built on Jun 9 2014 15:08:34\nWriting library : libebml v1.3.0 + libmatroska v1.4.1\n\nVideo\nID : 1\nFormat : AVC\nFormat/Info : Advanced Video Codec\nFormat profile : &lt;a class=&quot;__cf_email__&quot; href=&quot;/cdn-cgi/l/email-protection&quot; data-cfemail=&quot;6129080609212d554f50&quot;&gt;[email&amp;#160;protected]&lt;/a&gt;&lt;script cf-hash='f9e31' type=&quot;text/javascript&quot;&gt;\n/* &lt;![CDATA[ */!function(){try{var t=&quot;currentScript&quot;in document?document.currentScript:function(){for(var t=document.getElementsByTagName(&quot;script&quot;),e=t.length;e--;)if(t[e].getAttribute(&quot;cf-hash&quot;))return t[e]}();if(t&amp;&amp;t.previousSibling){var e,r,n,i,c=t.previousSibling,a=c.getAttribute(&quot;data-cfemail&quot;);if(a){for(e=&quot;&quot;,r=parseInt(a.substr(0,2),16),n=2;a.length-n;n+=2)i=parseInt(a.substr(n,2),16)^r,e+=String.fromCharCode(i);e=document.createTextNode(e),c.parentNode.replaceChild(e,c)}}}catch(u){}}();/* ]]&gt; */&lt;/script&gt;\nFormat settings, CABAC : Yes\nFormat settings, ReFrames : 4 frames\nCodec ID : V_MPEG4/ISO/AVC\nDuration : 2h 0mn\nBit rate : 1 645 Kbps\nWidth : 720 pixels\nHeight : 304 pixels\nDisplay aspect ratio : 2.35:1\nFrame rate mode : Constant\nFrame rate : 23.976 fps\nColor space : YUV\nChroma subsampling : 4:2:0\nBit depth : 8 bits\nScan type : Progressive\nBits/(Pixel*Frame) : 0.313\nStream size : 1.36 GiB (79%)\nWriting library : x264 core 142 r2431 ac76440\nDefault : Yes\nForced : No\n\nAudio\nID : 2\nFormat : AC-3\nFormat/Info : Audio Coding 3\nMode extension : CM (complete main)\nFormat settings, Endianness : Big\nCodec ID : A_AC3\nDuration : 2h 0mn\nBit rate mode : Constant\nBit rate : 384 Kbps\nChannel(s) : 6 channels\nChannel positions : Front: L C R, Side: L R, LFE\nSampling rate : 48.0 KHz\nBit depth : 16 bits\nCompression mode : Lossy\nStream size : 332 MiB (19%)\nLanguage : English\nDefault : Yes\nForced : No\n &lt;a href=&quot;\nhttp://i.imgur.com/fxipaUO.png&quot; rel=&quot;nofollow&quot; target=&quot;_NEW&quot;&gt;\nhttp://i.imgur.com/fxipaUO.png&lt;/a&gt; &lt;a href=&quot;\nhttp://i.imgur.com/uecbRJV.png&quot; rel=&quot;nofollow&quot; target=&quot;_NEW&quot;&gt;\nhttp://i.imgur.com/uecbRJV.png&lt;/a&gt; &lt;a href=&quot;\nhttp://i.imgur.com/DYUTWKa.png&quot; rel=&quot;nofollow&quot; target=&quot;_NEW&quot;&gt;\nhttp://i.imgur.com/DYUTWKa.png&lt;/a&gt; &lt;a href=&quot;\nhttp://i.imgur.com/C0YBjjB.png&quot; rel=&quot;nofollow&quot; target=&quot;_NEW&quot;&gt;\nhttp://i.imgur.com/C0YBjjB.png&lt;/a&gt;","torrent":{"xt":"urn:btih:d27e3b86f195d1c552fb9d83385ba7f13f4cbd20","amp;dn":"Guardians+of+the+Galaxy+2014+DVDRip+X264+AC3+5.1-PLAYNOW","amp;tr":["udp%3A%2F%2Ftracker.openbittorrent.com%3A80","udp%3A%2F%2Fopen.demonii.com%3A1337","udp%3A%2F%2Ftracker.coppersurfer.tk%3A6969","udp%3A%2F%2Fexodus.desync.com%3A6969"],"infoHash":"d27e3b86f195d1c552fb9d83385ba7f13f4cbd20","infoHashBuffer":{"type":"Buffer","data":[210,126,59,134,241,149,209,197,82,251,157,131,56,91,167,241,63,76,189,32]},"announce":[],"urlList":[]}}